<?xml version="1.0" ?><!DOCTYPE svg  PUBLIC '-//W3C//DTD SVG 1.1//EN'  'http://www.w3.org/Graphics/SVG/1.1/DTD/svg11.dtd'><svg id="Layer_1" style="enable-background:new 0 0 512 512;" version="1.1" viewBox="0 0 512 512" xml:space="preserve" xmlns="http://www.w3.org/2000/svg" xmlns:xlink="http://www.w3.org/1999/xlink"><style type="text/css">
	.st0{fill:url(#SVGID_1_);}
	.st1{fill:url(#SVGID_2_);}
	.st2{fill:none;stroke:url(#SVGID_3_);stroke-width:1.5;stroke-miterlimit:10;}
	.st3{opacity:0.93;}
	.st4{fill:#FFFFFF;}
	.st5{fill:none;stroke:url(#SVGID_4_);stroke-width:2;stroke-miterlimit:10;}
</style><linearGradient gradientUnits="userSpaceOnUse" id="SVGID_1_" x1="219.3368" x2="292.6632" y1="463.9274" y2="48.0726"><stop offset="5.596740e-002" style="stop-color:#E6BE68"/><stop offset="9.628294e-002" style="stop-color:#EFAF49"/><stop offset="0.1384" style="stop-color:#F6A230"/><stop offset="0.1826" style="stop-color:#FB9A1F"/><stop offset="0.23" style="stop-color:#FE9514"/><stop offset="0.2859" style="stop-color:#FF9311"/><stop offset="0.5899" style="stop-color:#F0A122"/><stop offset="0.8146" style="stop-color:#F6BF1B"/><stop offset="0.8753" style="stop-color:#F0C041"/><stop offset="0.9544" style="stop-color:#EAC16E"/><stop offset="0.9944" style="stop-color:#E7C17F"/></linearGradient><circle class="st0" cx="256" cy="256" r="211.1"/><g><linearGradient gradientUnits="userSpaceOnUse" id="SVGID_2_" x1="59.782" x2="452.218" y1="256" y2="256"><stop offset="5.056200e-002" style="stop-color:#E6BE83"/><stop offset="6.283368e-002" style="stop-color:#E7BA78"/><stop offset="0.1022" style="stop-color:#EAAF58"/><stop offset="0.1432" style="stop-color:#EDA73F"/><stop offset="0.186" style="stop-color:#EFA12E"/><stop offset="0.2318" style="stop-color:#F09D23"/><stop offset="0.2859" style="stop-color:#F09C20"/><stop offset="0.5899" style="stop-color:#F0D877"/><stop offset="0.8146" style="stop-color:#F6CE7E"/><stop offset="0.9944" style="stop-color:#E7C17F"/></linearGradient><circle class="st1" cx="256" cy="256" r="196.2"/><linearGradient gradientUnits="userSpaceOnUse" id="SVGID_3_" x1="256" x2="256" y1="452.968" y2="59.032"><stop offset="5.056200e-002" style="stop-color:#FFDF15"/><stop offset="0.2697" style="stop-color:#DB8B0E"/><stop offset="0.5575" style="stop-color:#FF9200"/><stop offset="0.8146" style="stop-color:#F7E3B1"/><stop offset="0.8883" style="stop-color:#F0D37C"/><stop offset="0.9589" style="stop-color:#E9C64F"/><stop offset="0.9944" style="stop-color:#E7C13E"/></linearGradient><circle class="st2" cx="256" cy="256" r="196.2"/></g><g class="st3" id="Shape_1_1_"><g><path class="st4" d="M200,146.8c-41.4,21.3-67.1,63.1-67.1,109.5c0,10.6,1.6,21.4,4.5,32c3.3-3,107.1-97.3,109.2-99.2    C244.6,187.1,201.4,148,200,146.8z M306.9,144.1c-16.1-7.3-33.2-11-50.8-11l0,0c-14.7,0-29.1,2.8-43,8    c3.2,2.9,89.6,81.3,93.9,85.2C306.9,220.6,306.9,145.8,306.9,144.1z M205.7,368.6c12.6,5.6,25.6,9.1,39.1,10.4h22.6    c42.5-3.9,80.6-30.2,99.5-69.1c-4.5,0-158.5,0-161.2,0C205.7,312.3,205.7,366.8,205.7,368.6z M192.7,361.5c0-4.8,0-100.2,0-105.9    c-4.1,3.7-49.5,45-50.9,46.3C151.6,326.5,169.7,347.6,192.7,361.5z M320,151.1c0,4.9,0,143.1,0,145.6c2.5,0,50.5,0,52.5,0    c3.7-10.5,5.9-21.4,6.6-32.4v-16.7C376.3,208.2,354.1,172,320,151.1z"/></g><g><linearGradient gradientTransform="matrix(0.498 0 0 -0.498 64.752 320.25)" gradientUnits="userSpaceOnUse" id="SVGID_4_" x1="137.3173" x2="630.6749" y1="129.0039" y2="129.0039"><stop offset="5.056200e-002" style="stop-color:#FFDF15"/><stop offset="0.2697" style="stop-color:#DB8B0E"/><stop offset="0.5575" style="stop-color:#FF9200"/><stop offset="0.8146" style="stop-color:#F7E3B1"/><stop offset="0.8883" style="stop-color:#F0D37C"/><stop offset="0.9589" style="stop-color:#E9C64F"/><stop offset="0.9944" style="stop-color:#E7C13E"/></linearGradient><path class="st5" d="M200,146.8c-41.4,21.3-67.1,63.1-67.1,109.5c0,10.6,1.6,21.4,4.5,32c3.3-3,107.1-97.3,109.2-99.2    C244.6,187.1,201.4,148,200,146.8z M306.9,144.1c-16.1-7.3-33.2-11-50.8-11l0,0c-14.7,0-29.1,2.8-43,8    c3.2,2.9,89.6,81.3,93.9,85.2C306.9,220.6,306.9,145.8,306.9,144.1z M205.7,368.6c12.6,5.6,25.6,9.1,39.1,10.4h22.6    c42.5-3.9,80.6-30.2,99.5-69.1c-4.5,0-158.5,0-161.2,0C205.7,312.3,205.7,366.8,205.7,368.6z M192.7,361.5c0-4.8,0-100.2,0-105.9    c-4.1,3.7-49.5,45-50.9,46.3C151.6,326.5,169.7,347.6,192.7,361.5z M320,151.1c0,4.9,0,143.1,0,145.6c2.5,0,50.5,0,52.5,0    c3.7-10.5,5.9-21.4,6.6-32.4v-16.7C376.3,208.2,354.1,172,320,151.1z"/></g></g></svg>